<svg viewBox="0 0 24 24" fill="none" xmlns="http://www.w3.org/2000/svg">
  <path d="M8 11C9.65685 11 11 9.65685 11 8C11 6.34315 9.65685 5 8 5C6.34315 5 5 6.34315 5 8C5 9.65685 6.34315 11 8 11Z" stroke="currentColor" stroke-width="1.8"/>
  <path d="M16 10C17.3807 10 18.5 8.88071 18.5 7.5C18.5 6.11929 17.3807 5 16 5C14.6193 5 13.5 6.11929 13.5 7.5C13.5 8.88071 14.6193 10 16 10Z" stroke="currentColor" stroke-width="1.8"/>
  <path d="M3.5 19C3.5 16.7909 5.29086 15 7.5 15H8.5C10.7091 15 12.5 16.7909 12.5 19" stroke="currentColor" stroke-width="1.8" stroke-linecap="round"/>
  <path d="M12 19C12 17.3431 13.3431 16 15 16H17C18.6569 16 20 17.3431 20 19" stroke="currentColor" stroke-width="1.8" stroke-linecap="round"/>
</svg>
