<?xml version="1.0" encoding="utf-8"?>
<svg version="1.1" xmlns="http://www.w3.org/2000/svg"
	 viewBox="0 0 620 140" xml:space="preserve">

<style>
	.next-base {
		fill: #07131D;
		stroke: #07131D;
		stroke-width: 3;
		stroke-miterlimit: 10;
	}

	.rep-base {
		fill: none;
		stroke: #00D99F;
		stroke-width: 3;
		stroke-miterlimit: 4;
	}

 .rep-base2 {
		fill: none;
		stroke: #b0d12a;
		stroke-width: 3;
		stroke-miterlimit: 4;
		stroke-linecap: round;
		stroke-dasharray: 50, 80;
	}

 
</style>

<!-- NEXT -->
<g id="next">
	<path id="next-n" class="next-base" d="M26.7,135H10.1c-2.8,0-4.2-1.4-4.2-4.2V10.6
		c0-2.8,1.4-4.2,4.2-4.2h15c2.8,0,4.7,0.9,5.6,2.8L71.1,85h0.8V10.6
		c0-2.8,1.4-4.2,4.2-4.2h16.6c2.8,0,4.2,1.4,4.2,4.2v120.2
		c0,2.8-1.4,4.2-4.2,4.2H78.1c-2.9,0-5.1-1.3-6.4-4l-40-74.4h-0.8v74.2
		C30.9,133.6,29.5,135,26.7,135z"/>

	<path id="next-e" class="next-base" d="M162.2,135h-56.1c-2.8,0-4.2-1.4-4.2-4.2V10.6
		c0-2.8,1.4-4.2,4.2-4.2L163.2,6c2.7,0,7,4.2,7,7l5.3,11.2
		c0,2.8-1.3,4.2-4,4.2h-41.8c-1.6,0-2.4,0.7-2.4,2.2v26
		c0,1.5,0.8,2.2,2.4,2.2h34.2c2.8,0,4.2,1.4,4.2,4.2v13.6
		c0,2.8-1.4,4.2-4.2,4.2h-34.2c-1.6,0-2.4,0.7-2.4,2.2v27.8
		c0,1.5,0.8,2.2,2.4,2.2h41.8c2.7,0,4,1.4,4,4.2l-6.3,12.8
		C169.2,132.8,164.9,135,162.2,135z"/>

	<path id="next-x" class="next-base" d="M196.2,135h-19.8c-1.3,0-2.3-0.4-2.8-1.3
		c-0.5-0.9-0.5-1.9,0-3.1l31-61.4l-30-58.4c-0.5-1.1-0.5-2.1,0-3
		c0.5-0.9,1.5-1.4,2.8-1.4h19.2c3.3,0,5.5,1.4,6.6,4.2l19,43h0.8
		l18.8-43c1.3-2.8,3.5-4.2,6.4-4.2h19.6c1.3,0,2.3,0.5,2.9,1.5
		c0.6,1,0.6,2,0.1,3.1l-30.4,58.2l31,61.2c0.7,1.3,0.7,2.4,0.2,3.3
		c-0.5,0.9-1.5,1.3-3,1.3h-20c-2.8,0-4.7-1.3-5.8-4L223,87.8h-0.8
		l-20,43.2C201,133.7,199,135,196.2,135z"/>

	<path id="next-t" class="next-base" d="M318.6,135h-16.8c-2.9,0-4.4-1.4-4.4-4.2V30.6
		c0-1.5-0.7-2.2-2.2-2.2h-22.8c-2.8,0-4.2-1.4-4.2-4.2l7-14.2
		c0-2.8,5.2-4,8-4L348,6.4c2.8,0,4.2,1.4,4.2,4.2v13.6
		c0,2.8-1.4,4.2-4.2,4.2h-22.8c-1.6,0-2.4,0.7-2.4,2.2v100.2
		C322.8,133.6,321.4,135,318.6,135z"/>
</g>

<!-- REP -->
<g id="rep">
	<path id="rep-r" class="rep-base" d="M378.4,135h-17c-2.8,0-4.2-1.4-4.2-4.2
	V10.6c0-2.8,1.4-4.2,4.2-4.2H409c10.4,0,18.5,2.9,24.4,8.6c5.9,5.7,8.8,13.8,8.8,24.2v15.6c0,15.1-5.9,25.1-17.8,30v0.8l21.4,44.6
	c1.2,3.2,0.1,4.8-3.4,4.8h-16.2c-2.4,0-4.1-0.3-5.2-0.8c-1.1-0.5-1.9-1.7-2.6-3.4l-20-43.2H385c-1.6,0-2.4,0.7-2.4,2.2v41
	C382.6,133.6,381.2,135,378.4,135z M384.8,67.2h19.6c4.3,0,7.4-0.9,9.4-2.7s3-4.7,3-8.7V40.2c0-4.1-1-7.1-3-9s-5.1-2.8-9.4-2.8
	h-19.6c-1.5,0-2.2,0.7-2.2,2.2V65C382.6,66.5,383.3,67.2,384.8,67.2z"/>

	<path id="rep-e" class="rep-base" d="M519.8,135h-65.4c-2.8,0-4.2-1.4-4.2-4.2V10.6
		c0-2.8,1.4-4.2,4.2-4.2h65.4c2.7,0,4,1.4,4,4.2v13.6
		c0,2.8-1.3,4.2-4,4.2H478c-1.6,0-2.4,0.7-2.4,2.2v26
		c0,1.5,0.8,2.2,2.4,2.2h34.2c2.8,0,4.2,1.4,4.2,4.2v13.6
		c0,2.8-1.4,4.2-4.2,4.2H478c-1.6,0-2.4,0.7-2.4,2.2v27.8
		c0,1.5,0.8,2.2,2.4,2.2h41.8c2.7,0,4,1.4,4,4.2v13.6
		C523.8,133.6,522.5,135,519.8,135z"/>

	<path  id="rep-p" class="rep-base" d="M549.4,135h-17c-2.8,0-4.2-1.4-4.2-4.2
	V10.6c0-2.8,1.4-4.2,4.2-4.2h48.8c10.4,0,18.5,2.8,24.2,8.5S614,28.6,614,39v19.2c0,10.4-2.9,18.4-8.6,24.1
	c-5.7,5.7-13.8,8.5-24.2,8.5H556c-1.6,0-2.4,0.7-2.4,2.2v37.8C553.6,133.6,552.2,135,549.4,135z M555.8,68.6H577
	c4.3,0,7.3-0.9,9-2.7s2.6-4.8,2.6-8.9V40.2c0-4.3-0.9-7.3-2.6-9.1c-1.7-1.8-4.7-2.7-9-2.7h-21.2c-1.5,0-2.2,0.7-2.2,2.2v35.8
	C553.6,67.9,554.3,68.6,555.8,68.6z"/>
</g>

<g id="rep2">
	<path id="rep-r2" class="rep-base2" d="M378.4,135h-17c-2.8,0-4.2-1.4-4.2-4.2
	V10.6c0-2.8,1.4-4.2,4.2-4.2H409c10.4,0,18.5,2.9,24.4,8.6c5.9,5.7,8.8,13.8,8.8,24.2v15.6c0,15.1-5.9,25.1-17.8,30v0.8l21.4,44.6
	c1.2,3.2,0.1,4.8-3.4,4.8h-16.2c-2.4,0-4.1-0.3-5.2-0.8c-1.1-0.5-1.9-1.7-2.6-3.4l-20-43.2H385c-1.6,0-2.4,0.7-2.4,2.2v41
	C382.6,133.6,381.2,135,378.4,135z M384.8,67.2h19.6c4.3,0,7.4-0.9,9.4-2.7s3-4.7,3-8.7V40.2c0-4.1-1-7.1-3-9s-5.1-2.8-9.4-2.8
	h-19.6c-1.5,0-2.2,0.7-2.2,2.2V65C382.6,66.5,383.3,67.2,384.8,67.2z"/>

	<path id="rep-e2" class="rep-base2" d="M519.8,135h-65.4c-2.8,0-4.2-1.4-4.2-4.2V10.6
		c0-2.8,1.4-4.2,4.2-4.2h65.4c2.7,0,4,1.4,4,4.2v13.6
		c0,2.8-1.3,4.2-4,4.2H478c-1.6,0-2.4,0.7-2.4,2.2v26
		c0,1.5,0.8,2.2,2.4,2.2h34.2c2.8,0,4.2,1.4,4.2,4.2v13.6
		c0,2.8-1.4,4.2-4.2,4.2H478c-1.6,0-2.4,0.7-2.4,2.2v27.8
		c0,1.5,0.8,2.2,2.4,2.2h41.8c2.7,0,4,1.4,4,4.2v13.6
		C523.8,133.6,522.5,135,519.8,135z"/>
	
	<path  id="rep-p2" class="rep-base2" d="M549.4,135h-17c-2.8,0-4.2-1.4-4.2-4.2
	V10.6c0-2.8,1.4-4.2,4.2-4.2h48.8c10.4,0,18.5,2.8,24.2,8.5S614,28.6,614,39v19.2c0,10.4-2.9,18.4-8.6,24.1
	c-5.7,5.7-13.8,8.5-24.2,8.5H556c-1.6,0-2.4,0.7-2.4,2.2v37.8C553.6,133.6,552.2,135,549.4,135z M555.8,68.6H577
	c4.3,0,7.3-0.9,9-2.7s2.6-4.8,2.6-8.9V40.2c0-4.3-0.9-7.3-2.6-9.1c-1.7-1.8-4.7-2.7-9-2.7h-21.2c-1.5,0-2.2,0.7-2.2,2.2v35.8
	C553.6,67.9,554.3,68.6,555.8,68.6z"/>
</g>

</svg>