<svg id="Layer_1" xmlns="http://www.w3.org/2000/svg" viewBox="0 0 500 150">

<style>
.next-base {
	fill: none;
	stroke: #07131D;
	stroke-width: 3;
}

.rep-base {
	fill: none;
	stroke: #00D99F;
	stroke-width: 3;
}
</style>

<!-- NEXT -->
<path id="next-n" class="next-base" d="M29.76,102.31h-8.96l-17.7-26.75v26.75h-8.96v-42.55h8.96l17.73,26.81v-26.81h8.93v42.55Z"/>
<path id="next-e" class="next-base" d="M65.49,66.97h-15.7v10.13h13.91v7.11h-13.91v10.93h15.7v7.17h-24.66v-42.61h24.66v7.17Z"/>
<path id="next-x" class="next-base" d="M90.64,80.82l13.91,21.49h-10.07l-9.68-14.64-8.53,14.64h-10.1l13.91-21.31-13.97-21.25h10.13l9.8,14.7,8.56-14.7h10.1l-14.06,21.06Z"/>
<path id="next-t" class="next-base" d="M136.02,59.76v7.2h-11.32v35.35h-8.96v-35.35h-11.32v-7.2h31.61Z"/>

<!-- REP -->
<!-- R -->
<path id="rep-r" class="rep-base" d="M171.54,102.31l-9.38-16.55h-4.02v16.55h-8.96v-42.55h16.79c3.45,0,6.39,.61,8.84,1.83,2.45,1.22,4.28,2.88,5.49,4.97,1.22,2.09,1.83,4.43,1.83,7.02,0,2.98-.86,5.66-2.59,8.05-1.73,2.39-4.29,4.04-7.69,4.97l10.22,17.7h-10.53Z"/>
<!-- línea interna R -->
<line x1="158" y1="80" x2="178" y2="80" class="rep-base"/>

<!-- E -->
<path id="rep-e" class="rep-base" d="M211.39,66.97h-15.7v10.13h13.91v7.11h-13.91v10.93h15.7v7.17h-24.66v-42.61h24.66v7.17Z"/>

<!-- P -->
<path id="rep-p" class="rep-base" d="M243.48,80.15c-2.79,2.59-6.93,3.89-12.41,3.89h-7.14v18.27h-8.96v-42.55h16.09c5.32,0,9.39,1.29,12.23,3.87,2.84,2.58,4.26,6.22,4.26,10.92s-1.39,8.01-4.18,10.6Z"/>
<!-- línea interna P -->
<line x1="224" y1="78" x2="244" y2="78" class="rep-base"/>

</svg>